<svg id="svg" version="1.1" xmlns="http://www.w3.org/2000/svg" xmlns:xlink="http://www.w3.org/1999/xlink" width="400" height="378.47025495750705" viewBox="0, 0, 400,378.47025495750705"><g id="svgg"><path id="path0" d="M101.515 24.834 C 50.507 29.865,16.631 73.287,22.336 126.326 C 26.644 166.372,44.290 193.196,96.592 239.202 C 101.803 243.786,102.355 244.273,107.576 248.897 C 109.555 250.650,112.447 253.192,114.003 254.546 C 145.909 282.315,170.601 308.654,188.371 333.875 C 189.309 335.205,189.374 333.893,188.468 331.937 C 186.731 328.189,180.830 320.456,165.543 301.894 C 162.712 298.456,159.280 294.280,157.917 292.614 C 88.565 207.855,63.865 153.521,74.315 108.712 C 83.013 71.417,116.656 43.235,154.595 41.463 C 161.386 41.145,161.323 41.202,157.575 38.786 C 140.337 27.672,121.150 22.897,101.515 24.834 " stroke="none" fill="#e69595" fill-rule="evenodd"></path><path id="path1" d="M101.515 17.040 C 81.561 18.421,60.926 27.110,46.970 40.008 C 46.032 40.874,44.716 42.039,44.046 42.596 C 40.365 45.653,32.577 55.498,28.675 62.028 C 19.468 77.434,15.716 91.639,15.743 110.985 C 15.763 125.847,17.091 135.124,21.275 149.621 C 28.776 175.617,48.172 202.618,80.871 232.585 C 82.538 234.113,84.754 236.146,85.795 237.104 C 88.334 239.439,99.064 248.964,107.576 256.439 C 110.488 258.997,113.266 261.450,124.078 271.015 C 154.402 297.840,180.324 325.027,196.402 346.867 C 199.201 350.670,198.922 350.690,201.894 346.483 C 214.767 328.258,236.175 304.494,259.106 282.975 C 268.904 273.780,270.169 272.621,279.169 264.583 C 283.834 260.417,289.464 255.388,291.678 253.409 C 293.893 251.430,298.670 247.169,302.295 243.939 C 362.901 189.943,382.901 156.738,382.948 110.038 C 383.020 37.826,304.239 -7.085,242.614 30.037 C 223.761 41.394,214.203 53.238,201.046 81.546 C 200.196 83.375,199.358 84.824,199.185 84.765 C 199.011 84.707,196.853 80.398,194.389 75.189 C 191.926 69.981,188.832 63.930,187.515 61.742 C 169.520 31.862,136.364 14.628,101.515 17.040 M117.466 24.817 C 132.542 26.302,144.871 30.596,157.575 38.786 C 161.323 41.202,161.386 41.145,154.595 41.463 C 108.433 43.620,72.147 82.312,72.169 129.356 C 72.187 170.152,98.130 219.545,157.917 292.614 C 159.280 294.280,162.712 298.456,165.543 301.894 C 180.830 320.456,186.731 328.189,188.468 331.937 C 189.374 333.893,189.309 335.205,188.371 333.875 C 170.601 308.654,145.909 282.315,114.003 254.546 C 112.447 253.192,109.555 250.650,107.576 248.897 C 102.355 244.273,101.803 243.786,96.592 239.202 C 60.204 207.195,43.253 187.416,32.803 164.773 C 21.324 139.901,18.437 110.477,25.221 87.500 C 37.068 47.378,76.244 20.756,117.466 24.817 " stroke="none" fill="#e60000" fill-rule="evenodd"></path><path id="path2" d="M96.875 1.014 C 95.260 1.099,93.939 1.308,93.939 1.479 C 93.939 1.650,92.533 1.905,90.814 2.046 C 89.096 2.188,87.008 2.480,86.174 2.696 C 85.341 2.912,83.636 3.263,82.386 3.476 C 81.136 3.688,79.943 3.997,79.735 4.161 C 79.527 4.325,78.633 4.579,77.748 4.725 C 76.864 4.871,76.056 5.126,75.953 5.293 C 75.850 5.460,75.175 5.707,74.452 5.842 C 73.729 5.978,72.662 6.337,72.080 6.641 C 71.499 6.944,70.639 7.193,70.170 7.195 C 69.702 7.196,69.318 7.348,69.318 7.534 C 69.318 7.719,68.722 7.982,67.992 8.119 C 67.263 8.256,66.667 8.530,66.667 8.729 C 66.667 8.928,66.387 9.091,66.045 9.091 C 65.401 9.091,62.078 10.602,61.739 11.049 C 61.632 11.189,61.078 11.421,60.508 11.564 C 59.937 11.707,59.470 11.963,59.470 12.132 C 59.470 12.301,58.958 12.552,58.333 12.689 C 57.708 12.827,57.197 13.077,57.197 13.247 C 57.197 13.416,56.777 13.660,56.264 13.788 C 55.166 14.064,50.625 16.655,50.442 17.110 C 50.372 17.283,50.069 17.424,49.767 17.424 C 49.465 17.424,49.126 17.665,49.014 17.958 C 48.901 18.252,48.395 18.596,47.889 18.723 C 47.383 18.850,46.970 19.121,46.970 19.325 C 46.970 19.530,46.709 19.697,46.390 19.697 C 46.071 19.697,45.711 19.953,45.592 20.265 C 45.472 20.578,45.134 20.833,44.842 20.833 C 44.550 20.833,44.019 21.174,43.662 21.591 C 43.305 22.008,42.858 22.348,42.668 22.348 C 42.477 22.348,41.949 22.750,41.495 23.241 C 41.040 23.732,40.492 24.201,40.278 24.283 C 38.520 24.955,23.106 40.303,23.106 41.380 C 23.106 41.558,22.723 42.078,22.254 42.537 C 21.227 43.542,19.697 45.682,19.697 46.113 C 19.697 46.283,19.399 46.697,19.034 47.032 C 17.993 47.988,17.045 49.350,17.045 49.888 C 17.045 50.158,16.875 50.379,16.667 50.379 C 16.458 50.379,16.288 50.626,16.288 50.928 C 16.288 51.230,16.075 51.614,15.814 51.780 C 15.554 51.947,14.915 52.936,14.394 53.977 C 13.873 55.019,13.319 55.928,13.163 55.997 C 13.007 56.067,12.879 56.271,12.879 56.451 C 12.879 56.630,12.308 57.767,11.611 58.976 C 10.913 60.185,9.933 62.197,9.433 63.447 C 8.932 64.697,8.395 65.777,8.238 65.846 C 8.081 65.916,7.847 66.640,7.716 67.456 C 7.586 68.272,7.338 68.939,7.166 68.939 C 6.993 68.939,6.741 69.536,6.604 70.265 C 6.467 70.994,6.214 71.591,6.042 71.591 C 5.869 71.591,5.613 72.358,5.473 73.295 C 5.332 74.233,5.076 75.000,4.904 75.000 C 4.733 75.000,4.477 75.767,4.336 76.705 C 4.196 77.642,3.946 78.409,3.780 78.409 C 3.615 78.409,3.363 79.261,3.220 80.303 C 3.076 81.345,2.818 82.197,2.646 82.197 C 2.474 82.197,2.214 83.305,2.069 84.659 C 1.924 86.013,1.670 87.121,1.505 87.121 C 1.340 87.121,1.083 88.573,0.936 90.347 C 0.788 92.120,0.517 93.665,0.334 93.778 C -0.100 94.046,-0.104 128.679,0.329 128.947 C 0.511 129.059,0.780 130.859,0.928 132.946 C 1.076 135.034,1.329 136.742,1.491 136.742 C 1.653 136.742,1.899 137.966,2.038 139.460 C 2.177 140.955,2.440 142.362,2.624 142.585 C 2.807 142.809,3.079 143.973,3.227 145.170 C 3.375 146.368,3.630 147.348,3.794 147.348 C 3.958 147.348,4.211 148.371,4.356 149.621 C 4.501 150.871,4.754 151.894,4.918 151.894 C 5.083 151.894,5.331 152.657,5.471 153.590 C 5.611 154.522,5.867 155.372,6.039 155.479 C 6.211 155.585,6.467 156.442,6.608 157.382 C 6.749 158.322,7.010 159.091,7.187 159.091 C 7.364 159.091,7.624 159.773,7.765 160.606 C 7.906 161.439,8.158 162.121,8.324 162.121 C 8.491 162.121,8.743 162.736,8.884 163.488 C 9.025 164.240,9.457 165.561,9.844 166.424 C 11.327 169.733,11.742 170.772,11.742 171.175 C 11.742 171.404,11.913 171.591,12.121 171.591 C 12.330 171.591,12.500 171.847,12.500 172.160 C 12.500 172.474,12.841 173.366,13.258 174.143 C 13.674 174.921,14.015 175.773,14.015 176.036 C 14.015 176.300,14.172 176.515,14.364 176.515 C 14.556 176.515,14.825 177.027,14.962 177.652 C 15.099 178.277,15.331 178.788,15.477 178.788 C 15.623 178.788,15.945 179.257,16.191 179.830 C 16.672 180.948,17.468 182.268,17.847 182.576 C 17.975 182.680,18.211 183.191,18.371 183.712 C 18.532 184.233,18.768 184.744,18.896 184.848 C 19.024 184.953,19.640 186.017,20.265 187.215 C 20.890 188.412,21.529 189.392,21.686 189.393 C 21.842 189.393,21.970 189.655,21.970 189.974 C 21.970 190.293,22.210 190.646,22.504 190.759 C 22.797 190.872,23.142 191.378,23.268 191.883 C 23.395 192.389,23.666 192.803,23.871 192.803 C 24.075 192.803,24.242 192.980,24.242 193.197 C 24.242 193.646,25.800 195.957,26.231 196.149 C 26.387 196.218,26.515 196.522,26.515 196.824 C 26.515 197.125,26.771 197.470,27.083 197.590 C 27.396 197.710,27.652 198.011,27.652 198.259 C 27.652 198.761,28.628 200.144,29.640 201.074 C 30.005 201.409,30.303 201.815,30.303 201.975 C 30.303 202.293,32.595 205.376,33.516 206.298 C 33.832 206.614,34.092 206.988,34.093 207.129 C 34.094 207.372,35.127 208.584,38.099 211.832 C 38.811 212.611,39.394 213.383,39.394 213.547 C 39.394 213.712,39.692 214.105,40.057 214.420 C 40.421 214.735,41.487 215.909,42.424 217.028 C 46.194 221.530,58.783 234.339,67.010 242.045 C 69.345 244.233,72.641 247.344,74.335 248.958 C 76.029 250.573,77.539 251.894,77.691 251.894 C 77.843 251.894,79.089 252.959,80.461 254.261 C 83.683 257.321,84.694 258.226,86.931 260.051 C 87.943 260.877,89.501 262.235,90.392 263.068 C 92.720 265.244,95.738 267.914,96.502 268.472 C 97.216 268.993,100.533 271.967,103.246 274.516 C 104.182 275.396,105.571 276.589,106.332 277.168 C 107.093 277.746,108.445 278.902,109.336 279.735 C 111.446 281.709,115.480 285.365,116.602 286.321 C 119.290 288.611,122.768 291.771,124.987 293.939 C 126.374 295.294,128.179 296.965,129.000 297.653 C 130.994 299.325,144.652 312.524,147.107 315.152 C 148.177 316.297,150.672 318.880,152.651 320.891 C 154.631 322.901,157.017 325.444,157.955 326.542 C 158.892 327.640,160.767 329.700,162.121 331.119 C 164.679 333.801,166.295 335.630,168.081 337.865 C 168.657 338.586,169.683 339.743,170.360 340.434 C 171.037 341.126,171.591 341.842,171.591 342.024 C 171.591 342.207,172.060 342.757,172.633 343.247 C 173.205 343.736,174.100 344.773,174.621 345.550 C 175.142 346.328,175.659 346.966,175.769 346.967 C 175.879 346.969,176.647 347.928,177.474 349.099 C 178.301 350.270,179.446 351.725,180.019 352.332 C 180.592 352.939,181.061 353.591,181.061 353.782 C 181.061 353.973,181.278 354.265,181.543 354.432 C 181.809 354.599,182.300 355.161,182.636 355.682 C 182.971 356.203,183.603 357.055,184.040 357.576 C 185.132 358.878,185.284 359.082,186.364 360.698 C 186.884 361.478,187.438 362.117,187.595 362.119 C 187.751 362.120,187.879 362.310,187.879 362.540 C 187.879 362.901,188.385 363.625,190.157 365.798 C 190.362 366.050,190.530 366.439,190.530 366.663 C 190.530 366.886,190.786 367.167,191.098 367.287 C 191.411 367.407,191.667 367.744,191.667 368.037 C 191.667 368.329,192.008 368.860,192.424 369.217 C 192.841 369.573,193.182 370.069,193.182 370.318 C 193.182 370.567,193.310 370.827,193.466 370.896 C 193.622 370.966,194.418 372.003,195.233 373.201 C 196.049 374.399,196.859 375.379,197.033 375.379 C 197.206 375.379,197.354 375.592,197.361 375.852 C 197.399 377.281,200.379 378.910,200.379 377.503 C 200.379 377.212,200.634 376.877,200.947 376.757 C 201.259 376.637,201.515 376.356,201.515 376.132 C 201.515 375.909,201.689 375.520,201.901 375.268 C 203.382 373.512,203.788 372.949,203.788 372.653 C 203.788 372.468,203.961 372.111,204.174 371.859 C 205.703 370.045,206.061 369.525,206.061 369.111 C 206.061 368.853,206.316 368.544,206.629 368.424 C 206.941 368.304,207.197 368.023,207.197 367.800 C 207.197 367.342,208.748 365.030,209.186 364.836 C 209.342 364.766,209.470 364.546,209.470 364.347 C 209.470 363.922,211.043 361.611,211.458 361.427 C 211.615 361.357,211.742 361.097,211.742 360.848 C 211.742 360.599,212.083 360.104,212.500 359.747 C 212.917 359.390,213.258 358.859,213.258 358.567 C 213.258 358.275,213.513 357.937,213.826 357.818 C 214.138 357.698,214.394 357.353,214.394 357.051 C 214.394 356.749,214.522 356.446,214.678 356.376 C 215.175 356.155,217.803 352.730,217.803 352.304 C 217.803 352.078,217.977 351.894,218.190 351.894 C 218.403 351.894,218.786 351.431,219.042 350.866 C 219.298 350.300,219.934 349.372,220.455 348.803 C 221.615 347.536,221.940 347.132,223.123 345.487 C 223.634 344.776,224.479 343.732,225.000 343.168 C 225.521 342.603,226.373 341.585,226.894 340.906 C 227.415 340.226,228.352 339.055,228.977 338.304 C 229.602 337.553,230.284 336.712,230.492 336.436 C 230.701 336.159,231.596 335.167,232.481 334.232 C 233.366 333.296,234.091 332.436,234.091 332.320 C 234.091 332.203,234.796 331.403,235.658 330.543 C 236.520 329.682,237.670 328.385,238.215 327.662 C 238.759 326.938,240.227 325.281,241.477 323.980 C 242.727 322.678,245.114 320.144,246.780 318.348 C 249.849 315.041,264.314 300.570,268.230 296.890 C 269.402 295.788,272.192 293.182,274.430 291.098 C 276.668 289.015,279.871 285.990,281.548 284.375 C 283.225 282.760,284.720 281.439,284.870 281.439 C 285.021 281.439,286.084 280.545,287.232 279.451 C 291.186 275.685,295.032 272.214,295.606 271.893 C 295.922 271.716,297.207 270.595,298.460 269.403 C 302.186 265.860,305.077 263.246,305.671 262.882 C 306.234 262.537,309.648 259.441,313.505 255.777 C 314.656 254.683,315.720 253.788,315.870 253.788 C 316.019 253.788,317.439 252.552,319.024 251.042 C 320.609 249.531,323.317 247.017,325.041 245.455 C 337.271 234.371,354.362 216.752,362.121 207.229 C 362.850 206.334,363.835 205.164,364.309 204.629 C 364.783 204.094,365.522 203.089,365.950 202.396 C 366.378 201.703,366.885 201.136,367.076 201.136 C 367.268 201.136,367.424 200.875,367.424 200.556 C 367.424 200.237,367.673 199.881,367.978 199.764 C 368.283 199.647,368.643 199.199,368.780 198.770 C 368.916 198.340,369.434 197.611,369.931 197.151 C 370.427 196.691,370.833 196.199,370.833 196.059 C 370.833 195.713,372.466 193.403,372.822 193.245 C 372.978 193.176,373.106 192.872,373.106 192.570 C 373.106 192.269,373.362 191.924,373.674 191.804 C 373.987 191.684,374.242 191.383,374.242 191.135 C 374.242 190.887,374.498 190.351,374.811 189.944 C 375.942 188.471,377.273 186.322,377.273 185.968 C 377.273 185.769,377.425 185.606,377.610 185.606 C 377.796 185.606,378.055 185.180,378.186 184.659 C 378.317 184.138,378.577 183.712,378.765 183.712 C 378.953 183.712,379.216 183.215,379.349 182.607 C 379.483 182.000,379.837 181.409,380.137 181.294 C 380.437 181.178,380.682 180.823,380.682 180.504 C 380.682 180.185,380.834 179.924,381.020 179.924 C 381.205 179.924,381.474 179.457,381.618 178.886 C 381.761 178.316,381.993 177.762,382.133 177.655 C 382.518 177.363,385.227 171.774,385.227 171.272 C 385.227 171.031,385.398 170.833,385.606 170.833 C 385.814 170.833,385.990 170.620,385.997 170.360 C 386.003 170.099,386.428 169.034,386.940 167.992 C 387.453 166.951,387.873 165.800,387.875 165.436 C 387.877 165.071,388.042 164.773,388.240 164.773 C 388.439 164.773,388.714 164.176,388.851 163.447 C 388.988 162.718,389.249 162.121,389.432 162.121 C 389.614 162.121,389.873 161.439,390.006 160.606 C 390.139 159.773,390.378 159.091,390.537 159.091 C 390.695 159.091,390.935 158.502,391.070 157.781 C 391.206 157.061,391.564 155.995,391.868 155.414 C 392.171 154.832,392.421 153.973,392.422 153.504 C 392.423 153.035,392.575 152.652,392.760 152.652 C 392.945 152.652,393.210 151.888,393.350 150.956 C 393.490 150.023,393.753 149.168,393.935 149.056 C 394.116 148.944,394.382 147.917,394.525 146.774 C 394.667 145.632,394.918 144.697,395.082 144.697 C 395.246 144.697,395.503 143.638,395.653 142.345 C 395.803 141.051,396.065 139.730,396.235 139.409 C 396.538 138.837,397.507 132.715,398.126 127.462 C 398.298 126.004,398.449 123.234,398.461 121.307 C 398.475 119.239,398.640 117.803,398.864 117.803 C 399.104 117.803,399.242 114.962,399.242 110.038 C 399.242 105.767,399.098 102.273,398.921 102.273 C 398.745 102.273,398.489 100.181,398.352 97.625 C 398.215 95.069,397.938 92.402,397.736 91.698 C 397.534 90.994,397.180 89.038,396.949 87.351 C 396.718 85.664,396.394 84.113,396.229 83.903 C 396.064 83.694,395.812 82.717,395.670 81.732 C 395.527 80.748,395.270 79.855,395.098 79.748 C 394.925 79.642,394.670 78.790,394.529 77.854 C 394.389 76.919,394.129 76.064,393.950 75.954 C 393.772 75.844,393.511 75.073,393.371 74.240 C 393.230 73.408,392.960 72.727,392.770 72.727 C 392.580 72.727,392.418 72.344,392.411 71.875 C 392.404 71.406,392.069 70.341,391.667 69.508 C 391.264 68.674,390.929 67.694,390.922 67.330 C 390.915 66.965,390.752 66.667,390.560 66.667 C 390.369 66.667,390.099 66.155,389.962 65.530 C 389.825 64.905,389.556 64.394,389.364 64.394 C 389.172 64.394,389.015 64.200,389.015 63.963 C 389.015 63.168,383.973 53.357,383.049 52.354 C 382.789 52.071,382.576 51.669,382.576 51.461 C 382.576 51.253,382.363 50.845,382.102 50.554 C 381.005 49.330,380.682 48.877,380.682 48.560 C 380.682 48.375,380.341 47.915,379.924 47.538 C 379.508 47.161,379.167 46.641,379.167 46.383 C 379.167 46.125,378.911 45.816,378.598 45.696 C 378.286 45.576,378.030 45.217,378.030 44.898 C 378.030 44.579,377.902 44.317,377.746 44.316 C 377.590 44.314,377.039 43.675,376.521 42.895 C 374.240 39.459,361.135 25.768,360.120 25.760 C 359.957 25.759,359.342 25.266,358.754 24.664 C 358.166 24.063,357.335 23.460,356.908 23.324 C 356.480 23.188,356.035 22.828,355.918 22.523 C 355.801 22.219,355.445 21.970,355.126 21.970 C 354.806 21.970,354.545 21.828,354.545 21.654 C 354.545 21.480,353.565 20.673,352.367 19.860 C 351.170 19.047,350.104 18.294,350.000 18.187 C 349.896 18.080,349.427 17.779,348.958 17.519 C 346.818 16.330,346.398 16.069,345.916 15.625 C 345.632 15.365,345.157 15.152,344.859 15.152 C 344.562 15.152,344.318 15.024,344.318 14.867 C 344.318 14.711,343.212 14.072,341.861 13.447 C 340.510 12.822,339.402 12.183,339.399 12.027 C 339.396 11.870,339.181 11.737,338.920 11.730 C 338.660 11.723,337.765 11.387,336.932 10.985 C 336.098 10.582,335.204 10.247,334.943 10.240 C 334.683 10.233,334.470 10.065,334.470 9.866 C 334.470 9.667,333.873 9.392,333.144 9.255 C 332.415 9.119,331.818 8.857,331.818 8.674 C 331.818 8.492,331.136 8.233,330.303 8.100 C 329.470 7.967,328.788 7.717,328.788 7.545 C 328.788 7.372,328.189 7.119,327.458 6.982 C 326.726 6.845,326.044 6.596,325.941 6.429 C 325.838 6.263,325.074 6.012,324.242 5.871 C 323.411 5.731,322.635 5.460,322.518 5.270 C 322.400 5.080,322.002 4.924,321.632 4.924 C 321.263 4.924,319.867 4.602,318.530 4.207 C 314.472 3.010,310.960 2.316,307.576 2.042 C 305.805 1.898,304.234 1.593,304.086 1.364 C 303.674 0.729,276.717 0.783,276.080 1.420 C 275.819 1.681,274.916 1.903,274.072 1.914 C 271.875 1.943,262.567 3.678,261.932 4.177 C 261.723 4.341,260.743 4.595,259.754 4.742 C 258.764 4.890,257.955 5.146,257.955 5.313 C 257.955 5.479,257.259 5.733,256.408 5.876 C 255.558 6.020,254.408 6.375,253.852 6.665 C 253.296 6.955,252.543 7.193,252.178 7.195 C 251.813 7.196,251.515 7.352,251.515 7.542 C 251.515 7.732,250.833 8.003,250.000 8.144 C 249.167 8.285,248.485 8.548,248.485 8.728 C 248.485 8.909,247.888 9.169,247.159 9.305 C 246.430 9.442,245.833 9.692,245.833 9.861 C 245.833 10.029,245.322 10.279,244.697 10.417 C 244.072 10.554,243.561 10.810,243.561 10.985 C 243.561 11.160,243.049 11.416,242.424 11.553 C 241.799 11.690,241.288 11.946,241.288 12.121 C 241.288 12.296,240.777 12.552,240.152 12.689 C 239.527 12.827,239.015 13.082,239.015 13.258 C 239.015 13.433,238.492 13.691,237.853 13.831 C 237.214 13.972,236.603 14.316,236.496 14.596 C 236.388 14.876,235.803 15.214,235.196 15.348 C 234.588 15.481,234.091 15.708,234.091 15.852 C 234.091 15.996,233.324 16.533,232.386 17.045 C 231.449 17.558,230.682 18.108,230.682 18.269 C 230.682 18.429,230.421 18.561,230.102 18.561 C 229.783 18.561,229.424 18.816,229.304 19.129 C 229.184 19.441,228.847 19.697,228.554 19.697 C 228.262 19.697,227.731 20.038,227.374 20.455 C 227.017 20.871,226.508 21.212,226.242 21.212 C 225.975 21.212,225.756 21.340,225.755 21.496 C 225.754 21.652,225.114 22.205,224.335 22.724 C 223.555 23.243,222.780 23.882,222.614 24.144 C 222.447 24.407,222.139 24.621,221.929 24.621 C 221.718 24.621,220.832 25.284,219.959 26.095 C 219.086 26.905,217.784 28.055,217.067 28.651 C 215.410 30.028,211.558 33.883,209.902 35.821 C 209.203 36.640,208.010 38.041,207.251 38.933 C 206.492 39.826,205.317 41.171,204.640 41.922 C 203.963 42.673,203.409 43.501,203.409 43.762 C 203.409 44.024,203.153 44.335,202.841 44.455 C 202.528 44.575,202.273 44.934,202.273 45.253 C 202.273 45.572,202.136 45.833,201.969 45.833 C 201.803 45.833,201.181 46.600,200.589 47.538 C 199.188 49.754,199.185 49.753,197.148 46.497 C 196.529 45.508,195.895 44.698,195.739 44.698 C 195.582 44.697,195.455 44.450,195.455 44.148 C 195.455 43.845,195.235 43.462,194.967 43.295 C 194.700 43.129,194.101 42.481,193.638 41.856 C 191.907 39.520,190.576 38.072,185.004 32.461 C 179.827 27.248,176.529 24.242,175.986 24.242 C 175.875 24.242,175.284 23.774,174.673 23.201 C 172.997 21.630,171.870 20.833,171.324 20.833 C 171.054 20.833,170.833 20.687,170.833 20.508 C 170.833 20.139,166.865 17.424,166.325 17.424 C 166.131 17.424,165.915 17.287,165.846 17.120 C 165.642 16.630,161.269 14.100,160.133 13.815 C 159.560 13.672,159.091 13.432,159.091 13.284 C 159.091 12.963,155.980 11.364,155.356 11.364 C 155.119 11.364,154.924 11.207,154.924 11.015 C 154.924 10.823,154.413 10.554,153.788 10.417 C 153.163 10.279,152.652 10.012,152.652 9.823 C 152.652 9.634,151.970 9.370,151.136 9.236 C 150.303 9.103,149.621 8.853,149.621 8.681 C 149.621 8.509,149.025 8.256,148.295 8.119 C 147.566 7.982,146.970 7.732,146.970 7.564 C 146.970 7.395,146.421 7.137,145.751 6.990 C 145.081 6.842,144.271 6.583,143.952 6.413 C 143.092 5.957,138.227 4.545,137.512 4.545 C 137.172 4.545,136.732 4.394,136.534 4.209 C 136.336 4.024,135.237 3.695,134.091 3.479 C 132.945 3.263,131.350 2.917,130.546 2.710 C 129.742 2.503,127.611 2.213,125.811 2.065 C 124.011 1.917,122.427 1.622,122.291 1.409 C 122.037 1.012,102.631 0.710,96.875 1.014 M121.780 17.822 C 154.471 22.623,178.508 41.615,194.389 75.189 C 196.853 80.398,199.011 84.707,199.185 84.765 C 199.358 84.824,200.196 83.375,201.046 81.546 C 214.203 53.238,223.761 41.394,242.614 30.037 C 304.239 -7.085,383.020 37.826,382.948 110.038 C 382.901 156.738,362.901 189.943,302.295 243.939 C 298.670 247.169,293.893 251.430,291.678 253.409 C 289.464 255.388,283.834 260.417,279.169 264.583 C 270.169 272.621,268.904 273.780,259.106 282.975 C 236.175 304.494,214.767 328.258,201.894 346.483 C 198.922 350.690,199.201 350.670,196.402 346.867 C 180.324 325.027,154.402 297.840,124.078 271.015 C 113.266 261.450,110.488 258.997,107.576 256.439 C 99.064 248.964,88.334 239.439,85.795 237.104 C 84.754 236.146,82.538 234.113,80.871 232.585 C 48.172 202.618,28.776 175.617,21.275 149.621 C 11.595 116.076,14.101 86.417,28.675 62.028 C 32.577 55.498,40.365 45.653,44.046 42.596 C 44.716 42.039,46.032 40.874,46.970 40.008 C 66.053 22.373,94.772 13.856,121.780 17.822 " stroke="none" fill="#000000" fill-rule="evenodd"></path></g></svg>