<svg width="249" height="102" viewBox="0 0 249 102" fill="none" xmlns="http://www.w3.org/2000/svg">
<path d="M67.9758 69.7963L73.192 97.7412L45.3297 83.6034L17.8809 98.553L22.7062 67.6768L0 46.1957L26.6822 41.919L30.8612 41.2426L44.2775 13.0195L58.5205 40.8367L89.5095 44.8653L67.4572 67.0153L67.9758 69.7963Z" fill="#F7C93F"/>
<path d="M62.0229 65.3394L66.3747 88.6394L45.2394 77.9214L24.4197 89.2632L28.0801 65.843L10.8682 49.548L34.2734 45.79L44.4427 24.384L55.2509 45.4818L78.7538 48.5409L62.0229 65.3394Z" fill="#F7E33F"/>
<path opacity="0.2" d="M67.4576 67.0153L67.9762 69.7963C66.3063 70.0444 64.6211 70.175 62.9329 70.1871H62.6097C54.3155 70.1992 46.2592 67.4162 39.7408 62.2875C33.2224 57.1587 28.6223 49.9832 26.6826 41.919L30.8616 41.2426L44.2779 13.0195L58.5209 40.8292L89.5099 44.8578L67.4576 67.0153Z" fill="white"/>
<path d="M227.466 69.7963L232.682 97.7412L204.819 83.6034L177.371 98.553L182.196 67.6768L159.49 46.1957L186.172 41.919L190.351 41.2426L203.767 13.0195L218.01 40.8367L248.999 44.8653L226.947 67.0153L227.466 69.7963Z" fill="#F7C93F"/>
<path d="M221.513 65.3394L225.865 88.6394L204.73 77.9214L183.91 89.2632L187.57 65.843L170.358 49.548L193.764 45.79L203.933 24.384L214.741 45.4818L238.244 48.5409L221.513 65.3394Z" fill="#F7E33F"/>
<path opacity="0.2" d="M226.948 67.0153L227.466 69.7963C225.797 70.0444 224.111 70.175 222.423 70.1871H222.1C213.806 70.1992 205.749 67.4162 199.231 62.2875C192.713 57.1587 188.112 49.9832 186.173 41.919L190.352 41.2426L203.768 13.0195L218.011 40.8292L249 44.8578L226.948 67.0153Z" fill="white"/>
<path d="M151.942 67.0998L158.107 100.126L125.179 83.4173L92.7393 101.085L98.442 64.5949L71.6074 39.2082L103.141 34.1539L108.08 33.3545L123.935 0L140.768 32.8748L177.391 37.636L151.33 63.8132L151.942 67.0998Z" fill="#F7C93F"/>
<path d="M144.907 61.8327L150.05 89.369L125.072 76.7023L100.467 90.1063L104.793 62.4278L84.4517 43.1702L112.112 38.7288L124.131 13.4309L136.904 38.3646L164.68 41.9799L144.907 61.8327Z" fill="#F7E33F"/>
<path opacity="0.2" d="M151.33 63.8132L151.943 67.0998C149.969 67.393 147.977 67.5474 145.982 67.5617H145.6C135.798 67.5759 126.277 64.287 118.574 58.2257C110.87 52.1644 105.433 43.6844 103.141 34.1539L108.08 33.3545L123.935 0L140.768 32.8659L177.392 37.6271L151.33 63.8132Z" fill="white"/>
</svg>
